HIERARCHY
ROOT hip
{
  OFFSET 0.00112043 5.09927 -9.65472
  CHANNELS 6 Xposition Yposition Zposition Zrotation Xrotation Yrotation
  JOINT abdomen
  {
    OFFSET 0 -1.186 -1.5018
    CHANNELS 3 Zrotation Xrotation Yrotation
    JOINT abdomen2
    {
      OFFSET 0 9.964 0.2134
      CHANNELS 3 Zrotation Xrotation Yrotation
      JOINT chest
      {
        OFFSET 0 13.134 -3.2573
        CHANNELS 3 Zrotation Xrotation Yrotation
        JOINT neck
        {
          OFFSET 0 20.686 -1.6905
          CHANNELS 3 Zrotation Xrotation Yrotation
          JOINT head
          {
            OFFSET 0 7.238 -0.1237
            CHANNELS 3 Zrotation Xrotation Yrotation
            End Site
            {
              OFFSET 0 0 0
            }
          }
        }
        JOINT lCollar
        {
          OFFSET 1.7069 20.075 5.0056
          CHANNELS 3 Zrotation Xrotation Yrotation
          JOINT lShldr
          {
            OFFSET 13.6458 -0.047 -4.849
            CHANNELS 3 Zrotation Xrotation Yrotation
            JOINT lForeArm
            {
              OFFSET 28.3255 -0.9759 2.2888
              CHANNELS 3 Zrotation Xrotation Yrotation
              JOINT lHand
              {
                OFFSET 22.1583 -0.53 10.8316
                CHANNELS 3 Zrotation Xrotation Yrotation
                JOINT lThumb1
                {
                  OFFSET 0.786 0.112 2.5817
                  CHANNELS 3 Zrotation Xrotation Yrotation
                  JOINT lThumb2
                  {
                    OFFSET 0.3601 -0.878 4.2331
                    CHANNELS 3 Zrotation Xrotation Yrotation
                    JOINT lThumb2_End
                    {
                      OFFSET 1.8127 -1.216 2.2227
                      CHANNELS 3 Zrotation Xrotation Yrotation
                      End Site
                      {
                        OFFSET 0.0181 -0.0122 0.0222
                      }
                    }
                  }
                }
                JOINT lCarpal1
                {
                  OFFSET 0.9571 1.114 1.7695
                  CHANNELS 3 Zrotation Xrotation Yrotation
                  JOINT lIndex1
                  {
                    OFFSET 4.1246 0.487 4.1451
                    CHANNELS 3 Zrotation Xrotation Yrotation
                    JOINT lIndex2
                    {
                      OFFSET 3.4052 -1.454 2.7682
                      CHANNELS 3 Zrotation Xrotation Yrotation
                      JOINT lIndex2_End
                      {
                        OFFSET 1.4531 -1.795 1.2713
                        CHANNELS 3 Zrotation Xrotation Yrotation
                        End Site
                        {
                          OFFSET 0.0145 -0.0179 0.0127
                        }
                      }
                    }
                  }
                  JOINT lMid1
                  {
                    OFFSET 5.6954 0.21 2.1184
                    CHANNELS 3 Zrotation Xrotation Yrotation
                    JOINT lMid2
                    {
                      OFFSET 3.9766 -1.54 2.3863
                      CHANNELS 3 Zrotation Xrotation Yrotation
                      JOINT lMid2_End
                      {
                        OFFSET 1.4042 -1.926 1.125
                        CHANNELS 3 Zrotation Xrotation Yrotation
                        End Site
                        {
                          OFFSET 0.014 -0.0193 0.0113
                        }
                      }
                    }
                  }
                }
                JOINT lCarpal2
                {
                  OFFSET 2.0956 0.66 -0.3894
                  CHANNELS 3 Zrotation Xrotation Yrotation
                  JOINT lRing1
                  {
                    OFFSET 5.0395 -0.09 2.4971
                    CHANNELS 3 Zrotation Xrotation Yrotation
                    JOINT lRing2
                    {
                      OFFSET 3.7921 -1.552 1.4806
                      CHANNELS 3 Zrotation Xrotation Yrotation
                      JOINT lRing2_End
                      {
                        OFFSET 1.4655 -1.808 0.9609
                        CHANNELS 3 Zrotation Xrotation Yrotation
                        End Site
                        {
                          OFFSET 0.0147 -0.0181 0.0096
                        }
                      }
                    }
                  }
                  JOINT lPinky1
                  {
                    OFFSET 4.9141 -1.269 0.3591
                    CHANNELS 3 Zrotation Xrotation Yrotation
                    JOINT lPinky2
                    {
                      OFFSET 3.1477 -1.685 0.8462
                      CHANNELS 3 Zrotation Xrotation Yrotation
                      JOINT lPinky2_End
                      {
                        OFFSET 0.8055 -1.585 0.7955
                        CHANNELS 3 Zrotation Xrotation Yrotation
                        End Site
                        {
                          OFFSET 0.0081 -0.0158 0.008
                        }
                      }
                    }
                  }
                }
              }
            }
          }
        }
        JOINT rCollar
        {
          OFFSET -1.7069 20.075 5.0056
          CHANNELS 3 Zrotation Xrotation Yrotation
          JOINT rShldr
          {
            OFFSET -13.6458 -0.047 -4.849
            CHANNELS 3 Zrotation Xrotation Yrotation
            JOINT rForeArm
            {
              OFFSET -28.3255 -0.9759 2.2888
              CHANNELS 3 Zrotation Xrotation Yrotation
              JOINT rHand
              {
                OFFSET -22.1583 -0.53 10.8316
                CHANNELS 3 Zrotation Xrotation Yrotation
                JOINT rThumb1
                {
                  OFFSET -0.786 0.112 2.5817
                  CHANNELS 3 Zrotation Xrotation Yrotation
                  JOINT rThumb2
                  {
                    OFFSET -0.3601 -0.878 4.2331
                    CHANNELS 3 Zrotation Xrotation Yrotation
                    JOINT rThumb2_End
                    {
                      OFFSET -1.8127 -1.216 2.2227
                      CHANNELS 3 Zrotation Xrotation Yrotation
                      End Site
                      {
                        OFFSET -0.0181 -0.0122 0.0222
                      }
                    }
                  }
                }
                JOINT rCarpal1
                {
                  OFFSET -0.9571 1.114 1.7695
                  CHANNELS 3 Zrotation Xrotation Yrotation
                  JOINT rIndex1
                  {
                    OFFSET -4.1246 0.487 4.1451
                    CHANNELS 3 Zrotation Xrotation Yrotation
                    JOINT rIndex2
                    {
                      OFFSET -3.4052 -1.454 2.7682
                      CHANNELS 3 Zrotation Xrotation Yrotation
                      JOINT rIndex2_End
                      {
                        OFFSET -1.4531 -1.795 1.2713
                        CHANNELS 3 Zrotation Xrotation Yrotation
                        End Site
                        {
                          OFFSET -0.0145 -0.018 0.0127
                        }
                      }
                    }
                  }
                  JOINT rMid1
                  {
                    OFFSET -5.6954 0.21 2.1184
                    CHANNELS 3 Zrotation Xrotation Yrotation
                    JOINT rMid2
                    {
                      OFFSET -3.9766 -1.54 2.3863
                      CHANNELS 3 Zrotation Xrotation Yrotation
                      JOINT rMid2_End
                      {
                        OFFSET -1.4042 -1.926 1.125
                        CHANNELS 3 Zrotation Xrotation Yrotation
                        End Site
                        {
                          OFFSET -0.014 -0.0193 0.0113
                        }
                      }
                    }
                  }
                }
                JOINT rCarpal2
                {
                  OFFSET -2.0956 0.66 -0.3894
                  CHANNELS 3 Zrotation Xrotation Yrotation
                  JOINT rRing1
                  {
                    OFFSET -5.0395 -0.09 2.4971
                    CHANNELS 3 Zrotation Xrotation Yrotation
                    JOINT rRing2
                    {
                      OFFSET -3.7921 -1.552 1.4806
                      CHANNELS 3 Zrotation Xrotation Yrotation
                      JOINT rRing2_End
                      {
                        OFFSET -1.4655 -1.808 0.9609
                        CHANNELS 3 Zrotation Xrotation Yrotation
                        End Site
                        {
                          OFFSET -0.0147 -0.0181 0.0096
                        }
                      }
                    }
                  }
                  JOINT rPinky1
                  {
                    OFFSET -4.9141 -1.269 0.3592
                    CHANNELS 3 Zrotation Xrotation Yrotation
                    JOINT rPinky2
                    {
                      OFFSET -3.1477 -1.685 0.8462
                      CHANNELS 3 Zrotation Xrotation Yrotation
                      JOINT rPinky2_End
                      {
                        OFFSET -0.8055 -1.585 0.7955
                        CHANNELS 3 Zrotation Xrotation Yrotation
                        End Site
                        {
                          OFFSET -0.0081 -0.0158 0.008
                        }
                      }
                    }
                  }
                }
              }
            }
          }
        }
      }
    }
  }
  JOINT lThigh
  {
    OFFSET 8.367 -8.2066 0.5982
    CHANNELS 3 Zrotation Xrotation Yrotation
    JOINT lShin
    {
      OFFSET 2.1923 -43.463 -0.4932
      CHANNELS 3 Zrotation Xrotation Yrotation
      JOINT lFoot
      {
        OFFSET 0.7333 -45.8593 -2.6451
        CHANNELS 3 Zrotation Xrotation Yrotation
        End Site
        {
          OFFSET 2.6618 -4.2699 12.3931
        }
      }
    }
  }
  JOINT rThigh
  {
    OFFSET -8.367 -8.2066 0.5982
    CHANNELS 3 Zrotation Xrotation Yrotation
    JOINT rShin
    {
      OFFSET -2.1923 -43.463 -0.4931
      CHANNELS 3 Zrotation Xrotation Yrotation
      JOINT rFoot
      {
        OFFSET -0.7333 -45.8593 -2.6451
        CHANNELS 3 Zrotation Xrotation Yrotation
        End Site
        {
          OFFSET -2.6618 -4.2699 12.3931
        }
      }
    }
  }
}
MOTION
Frames:	4
Frame Time:	0.0333333
0.00908218 1.17132 -9.66037 -180 -74.9926 -180 -0.266142 5.24914 -0.357451 -0.502417 10.4998 -0.694698 -0.502416 10.4998 -0.694697 0.943765 -4.0896 -0.0327575 -1.07791e-007 15.2654 1.65823e-007 -1.81513 -8.90688 -11.0753 -12.6099 -17.575 -43.3003 -42.9556 -11.9889 -36.8833 -14.8633 -7.08699 -27.0046 2.28947e-006 -1.02462e-006 1.84697e-006 -2.28947e-006 1.02462e-006 -1.84697e-006 2.28947e-006 -1.02462e-006 1.84697e-006 -9.93923e-016 0 -0 2.28947e-006 -1.02462e-006 1.84697e-006 -2.28947e-006 1.02462e-006 -1.84697e-006 2.28947e-006 -1.02462e-006 1.84697e-006 2.28947e-006 -1.02462e-006 1.84697e-006 -2.28947e-006 1.02462e-006 -1.84697e-006 2.28947e-006 -1.02462e-006 1.84697e-006 -9.93923e-016 0 -0 2.28947e-006 -1.02462e-006 1.84697e-006 -2.28947e-006 1.02462e-006 -1.84697e-006 2.28947e-006 -1.02462e-006 1.84697e-006 2.28947e-006 -1.02462e-006 1.84697e-006 -2.28947e-006 1.02462e-006 -1.84697e-006 2.28947e-006 -1.02462e-006 1.84697e-006 19.876 -4.44016 21.7227 50.0078 19.2318 16.52 35.3371 -33.6337 3.65906 30.5785 33.9579 11.3894 -1.95746e-006 2.27309e-006 -3.03348e-007 1.95746e-006 -2.27309e-006 3.03348e-007 -1.95746e-006 2.27309e-006 -3.03348e-007 5.29669e-031 9.54166e-015 -3.18055e-015 -1.95746e-006 2.27309e-006 -3.03348e-007 1.95746e-006 -2.27309e-006 3.03348e-007 -1.95746e-006 2.27309e-006 -3.03348e-007 -1.95746e-006 2.27309e-006 -3.03348e-007 1.95746e-006 -2.27309e-006 3.03348e-007 -1.95746e-006 2.27309e-006 -3.03348e-007 5.29669e-031 9.54166e-015 -3.18055e-015 -1.95746e-006 2.27309e-006 -3.03348e-007 1.95746e-006 -2.27309e-006 3.03348e-007 -1.95746e-006 2.27309e-006 -3.03348e-007 -1.95746e-006 2.27309e-006 -3.03348e-007 1.95746e-006 -2.27309e-006 3.03348e-007 -1.95746e-006 2.27309e-006 -3.03348e-007 17.5218 -42.7388 25.0631 170.91 53.7082 -166.886 15.4879 16.3824 -0.535994 -12.8288 -32.1815 -17.9455 -169.503 68.4849 166.709 -13.2468 15.1327 0.983331 
0.00908137 1.17134 -9.66039 -180 -74.9926 -180 -0.26593 5.29059 -0.358856 -0.501642 10.5827 -0.697417 -0.501642 10.5827 -0.697417 0.943586 -3.88203 -0.03623 2.94882e-007 15.5143 -1.77874e-007 -1.69737 -9.10472 -11.1012 -12.6099 -17.575 -43.3003 -42.9556 -11.9889 -36.8833 -14.8993 -7.16756 -27.0939 1.13334e-009 -1.40734e-006 1.3269e-006 -1.6654e-007 3.94488e-007 7.36804e-007 -1.6654e-007 3.94488e-007 7.36804e-007 -3.97569e-016 3.18055e-015 7.95139e-016 1.13334e-009 -1.40734e-006 1.3269e-006 -1.6654e-007 3.94488e-007 7.36804e-007 -1.6654e-007 3.94488e-007 7.36804e-007 1.13334e-009 -1.40734e-006 1.3269e-006 -1.6654e-007 3.94488e-007 7.36804e-007 -1.6654e-007 3.94488e-007 7.36804e-007 -3.97569e-016 3.18055e-015 7.95139e-016 1.13334e-009 -1.40734e-006 1.3269e-006 -1.6654e-007 3.94488e-007 7.36804e-007 -1.6654e-007 3.94488e-007 7.36804e-007 1.13334e-009 -1.40734e-006 1.3269e-006 -1.6654e-007 3.94488e-007 7.36804e-007 -1.6654e-007 3.94488e-007 7.36804e-007 19.8633 -4.64069 21.797 49.9551 19.259 16.3021 35.3371 -33.6337 3.65907 30.8643 34.0176 10.4253 3.18055e-015 -3.18055e-015 3.18055e-015 -1.61356e-007 -2.44369e-006 -6.46681e-007 3.18055e-015 6.36111e-015 -9.54166e-015 1.76556e-031 -3.18055e-015 3.18055e-015 1.76556e-031 3.18055e-015 -3.18055e-015 -1.61356e-007 -2.44369e-006 -6.46681e-007 3.18055e-015 6.36111e-015 -9.54166e-015 1.76556e-031 3.18055e-015 -3.18055e-015 -1.61356e-007 -2.44369e-006 -6.46681e-007 3.18055e-015 6.36111e-015 -9.54166e-015 1.76556e-031 -3.18055e-015 3.18055e-015 1.76556e-031 3.18055e-015 -3.18055e-015 -1.61356e-007 -2.44369e-006 -6.46681e-007 3.18055e-015 6.36111e-015 -9.54166e-015 1.76556e-031 3.18055e-015 -3.18055e-015 -1.61356e-007 -2.44369e-006 -6.46681e-007 3.18055e-015 6.36111e-015 -9.54166e-015 17.1462 -42.8069 24.6953 170.909 53.7081 -166.875 15.183 16.4103 -0.377052 -12.6078 -32.2141 -17.7186 -169.502 68.4849 166.704 -13.0374 15.1566 0.847435 
0.00908012 1.17137 -9.66041 -180 -74.9926 -180 -0.265713 5.32833 -0.360121 -0.500888 10.6582 -0.699868 -0.500889 10.6582 -0.699867 0.943503 -3.69213 -0.0393853 -1.63896e-007 15.7409 1.19591e-008 -1.59023 -9.2848 -11.1244 -12.6099 -17.575 -43.3003 -42.9556 -11.9889 -36.8833 -14.9323 -7.24084 -27.1753 5.1684e-015 3.18055e-015 -1.59028e-015 2.78299e-015 0 2.38542e-015 3.97569e-015 0 1.59028e-015 3.77691e-015 3.18055e-015 1.59028e-015 -3.37934e-015 -3.18055e-015 3.97569e-015 5.1684e-015 3.18055e-015 -1.59028e-015 -3.18055e-015 0 -3.97569e-015 -3.37934e-015 -3.18055e-015 3.97569e-015 5.1684e-015 3.18055e-015 -1.59028e-015 -3.18055e-015 0 -3.97569e-015 3.77691e-015 3.18055e-015 1.59028e-015 -3.37934e-015 -3.18055e-015 3.97569e-015 5.1684e-015 3.18055e-015 -1.59028e-015 -3.18055e-015 0 -3.97569e-015 -3.37934e-015 -3.18055e-015 3.97569e-015 5.1684e-015 3.18055e-015 -1.59028e-015 -3.18055e-015 0 -3.97569e-015 19.8518 -4.82319 21.8645 49.9073 19.2839 16.1038 35.3371 -33.6337 3.65906 31.1261 34.0689 9.54626 -1.16615e-006 -4.53191e-007 3.39696e-006 8.92198e-007 -2.96767e-006 -5.15204e-007 6.36111e-015 0 -0 -6.36111e-015 -6.36111e-015 -0 -1.16615e-006 -4.53191e-007 3.39696e-006 8.92198e-007 -2.96767e-006 -5.15204e-007 6.36111e-015 3.18055e-015 -3.18055e-015 -1.16615e-006 -4.53191e-007 3.39696e-006 8.92198e-007 -2.96767e-006 -5.15204e-007 6.36111e-015 3.18055e-015 -3.18055e-015 -6.36111e-015 -6.36111e-015 -0 -1.16615e-006 -4.53191e-007 3.39696e-006 8.92198e-007 -2.96767e-006 -5.15204e-007 6.36111e-015 3.18055e-015 -3.18055e-015 -1.16615e-006 -4.53191e-007 3.39696e-006 8.92198e-007 -2.96767e-006 -5.15204e-007 6.36111e-015 3.18055e-015 -3.18055e-015 16.8035 -42.8675 24.3596 170.909 53.708 -166.865 14.9055 16.4351 -0.23225 -12.4066 -32.243 -17.512 -169.502 68.485 166.698 -12.8467 15.178 0.723675 
0.0090788 1.17139 -9.66043 -180 -74.9926 -180 -0.265327 5.36607 -0.36118 -0.499811 10.7337 -0.701921 -0.499812 10.7337 -0.701922 0.943472 -3.50445 -0.0425343 -3.60929e-007 15.9675 4.34974e-008 -1.4831 -9.46491 -11.1472 -12.6099 -17.575 -43.3003 -42.9556 -11.9889 -36.8833 -14.9653 -7.31407 -27.2567 -7.16477e-009 -1.40898e-006 1.31959e-006 1.66745e-007 -3.9353e-007 -7.37293e-007 1.66745e-007 -3.9353e-007 -7.37293e-007 5.96354e-016 -3.18055e-015 7.95139e-016 -7.16477e-009 -1.40898e-006 1.31959e-006 1.66745e-007 -3.9353e-007 -7.37293e-007 1.66745e-007 -3.9353e-007 -7.37293e-007 -7.16477e-009 -1.40898e-006 1.31959e-006 1.66745e-007 -3.9353e-007 -7.37293e-007 1.66745e-007 -3.9353e-007 -7.37293e-007 5.96354e-016 -3.18055e-015 7.95139e-016 -7.16477e-009 -1.40898e-006 1.31959e-006 1.66745e-007 -3.9353e-007 -7.37293e-007 1.66745e-007 -3.9353e-007 -7.37293e-007 -7.16477e-009 -1.40898e-006 1.31959e-006 1.66745e-007 -3.9353e-007 -7.37293e-007 1.66745e-007 -3.9353e-007 -7.37293e-007 19.8406 -5.00571 21.9321 49.8595 19.309 15.9056 35.3371 -33.6337 3.65906 31.3891 34.1167 8.66565 3.18055e-015 0 3.18055e-015 3.18055e-015 -6.36111e-015 -0 -1.76556e-031 -3.18055e-015 -3.18055e-015 3.18055e-015 3.18055e-015 3.18055e-015 3.18055e-015 0 3.18055e-015 3.18055e-015 -9.54166e-015 -0 -7.06225e-031 -6.36111e-015 -6.36111e-015 3.18055e-015 0 3.18055e-015 3.18055e-015 -9.54166e-015 -0 -7.06225e-031 -6.36111e-015 -6.36111e-015 3.18055e-015 3.18055e-015 3.18055e-015 3.18055e-015 0 3.18055e-015 3.18055e-015 -9.54166e-015 -0 -7.06225e-031 -6.36111e-015 -6.36111e-015 3.18055e-015 0 3.18055e-015 3.18055e-015 -9.54166e-015 -0 -7.06225e-031 -6.36111e-015 -6.36111e-015 16.4603 -42.9259 24.0233 170.907 53.7082 -166.855 14.6279 16.4591 -0.0872843 -12.2049 -32.2719 -17.305 -169.501 68.4846 166.694 -12.656 15.199 0.599811 
